{
  "accessors": [
    {
      "bufferView": 3,
      "componentType": 5126,
      "count": 2147,
      "max": [
        14.207300186157227,
        40.072601318359375,
        16.424200057983398
      ],
      "min": [
        -14.207300186157227,
        -0.15695899724960327,
        -25.036399841308594
      ],
      "type": "VEC3"
    },
    {
      "bufferView": 3,
      "byteOffset": 25764,
      "componentType": 5126,
      "count": 2147,
      "max": [
        0.99997377395629883,
        0.99994796514511108,
        0.99718070030212402
      ],
      "min": [
        -0.99997377395629883,
        -1,
        -0.99981468915939331
      ],
      "type": "VEC3"
    },
    {
      "bufferView": 2,
      "componentType": 5126,
      "count": 2147,
      "max": [
        1,
        0.99233400821685791
      ],
      "min": [
        0,
        0.0078130001202225685
      ],
      "type": "VEC2"
    },
    {
      "bufferView": 1,
      "componentType": 5125,
      "count": 9924,
      "max": [
        2146
      ],
      "min": [
        0
      ],
      "type": "SCALAR"
    },
    {
      "bufferView": 3,
      "byteOffset": 51528,
      "componentType": 5126,
      "count": 32,
      "max": [
        6.4707298278808594,
        21.120700836181641,
        16.279899597167969
      ],
      "min": [
        -6.4707298278808594,
        15.253898620605469,
        12.996801376342773
      ],
      "type": "VEC3"
    },
    {
      "bufferView": 3,
      "byteOffset": 51912,
      "componentType": 5126,
      "count": 32,
      "max": [
        0.67239511013031006,
        0.48205527663230896,
        0.97726708650588989
      ],
      "min": [
        -0.67239511013031006,
        -0.21608877182006836,
        0.68559747934341431
      ],
      "type": "VEC3"
    },
    {
      "bufferView": 2,
      "byteOffset": 17176,
      "componentType": 5126,
      "count": 32,
      "max": [
        0.47655999660491943,
        1.9882800579071045
      ],
      "min": [
        0.023437999188899994,
        1.7628200054168701
      ],
      "type": "VEC2"
    },
    {
      "bufferView": 1,
      "byteOffset": 39696,
      "componentType": 5125,
      "count": 108,
      "max": [
        31
      ],
      "min": [
        0
      ],
      "type": "SCALAR"
    },
    {
      "bufferView": 5,
      "componentType": 5126,
      "count": 38,
      "max": [
        1,
        1.0000001192092896,
        0.14071759581565857,
        0,
        0.99800795316696167,
        1,
        0.9999995231628418,
        0,
        0.99999988079071045,
        4.0738133975537494e-05,
        1,
        0,
        10.776942253112793,
        7.1283454895019531,
        16.625688552856445,
        1
      ],
      "min": [
        -0.56641179323196411,
        -1,
        -0.14072079956531525,
        0,
        -0.99999028444290161,
        -0.58362990617752075,
        -0.99999964237213135,
        0,
        -0.99999988079071045,
        -6.3454799601458944e-06,
        -0.72165238857269287,
        0,
        -30.491771697998047,
        -7.1284184455871582,
        -4.9314613342285156,
        1
      ],
      "type": "MAT4"
    },
    {
      "bufferView": 0,
      "componentType": 5123,
      "count": 2147,
      "max": [
        34,
        34,
        34,
        32
      ],
      "min": [
        4,
        4,
        4,
        4
      ],
      "type": "VEC4"
    },
    {
      "bufferView": 4,
      "componentType": 5126,
      "count": 2147,
      "max": [
        1,
        0.5,
        0.31999999284744263,
        0.14000000059604645
      ],
      "min": [
        0.34999999403953552,
        0,
        0,
        0
      ],
      "type": "VEC4"
    },
    {
      "bufferView": 0,
      "byteOffset": 17176,
      "componentType": 5123,
      "count": 32,
      "max": [
        25,
        25,
        25,
        25
      ],
      "min": [
        25,
        25,
        25,
        25
      ],
      "type": "VEC4"
    },
    {
      "bufferView": 4,
      "byteOffset": 34352,
      "componentType": 5126,
      "count": 32,
      "max": [
        1,
        0,
        0,
        0
      ],
      "min": [
        1,
        0,
        0,
        0
      ],
      "type": "VEC4"
    }
  ],
  "asset": {
    "extras": {
      "author": "jacobjksn42 (https://sketchfab.com/jacobjksn42)",
      "license": "CC-BY-4.0 (http://creativecommons.org/licenses/by/4.0/)",
      "source": "https://sketchfab.com/3d-models/258-mudkip-43fc7ab80a0a4f19894b119d4cb2e622",
      "title": "258 Mudkip"
    },
    "generator": "Sketchfab-7.94.0",
    "version": "2.0"
  },
  "bufferViews": [
    {
      "buffer": 0,
      "byteLength": 17432,
      "byteOffset": 0,
      "byteStride": 8,
      "name": "shortBufferViews",
      "target": 34962
    },
    {
      "buffer": 0,
      "byteLength": 40128,
      "byteOffset": 17432,
      "name": "floatBufferViews",
      "target": 34963
    },
    {
      "buffer": 0,
      "byteLength": 17432,
      "byteOffset": 57560,
      "byteStride": 8,
      "name": "floatBufferViews",
      "target": 34962
    },
    {
      "buffer": 0,
      "byteLength": 52296,
      "byteOffset": 74992,
      "byteStride": 12,
      "name": "floatBufferViews",
      "target": 34962
    },
    {
      "buffer": 0,
      "byteLength": 34864,
      "byteOffset": 127288,
      "byteStride": 16,
      "name": "floatBufferViews",
      "target": 34962
    },
    {
      "buffer": 0,
      "byteLength": 2432,
      "byteOffset": 162152,
      "byteStride": 64,
      "name": "floatBufferViews"
    }
  ],
  "buffers": [
    {
      "byteLength": 164584,
      "uri": "scene.bin"
    }
  ],
  "images": [
    {
      "uri": "textures/Material_77_baseColor.png"
    },
    {
      "uri": "textures/Material_78_baseColor.png"
    }
  ],
  "materials": [
    {
      "doubleSided": true,
      "emissiveFactor": [
        0,
        0,
        0
      ],
      "name": "Material_77",
      "pbrMetallicRoughness": {
        "baseColorFactor": [
          1,
          1,
          1,
          1
        ],
        "baseColorTexture": {
          "index": 0,
          "texCoord": 0
        },
        "metallicFactor": 0,
        "roughnessFactor": 0.89297135964975516
      }
    },
    {
      "doubleSided": true,
      "emissiveFactor": [
        0,
        0,
        0
      ],
      "name": "Material_78",
      "pbrMetallicRoughness": {
        "baseColorFactor": [
          1,
          1,
          1,
          1
        ],
        "baseColorTexture": {
          "index": 1,
          "texCoord": 0
        },
        "metallicFactor": 0,
        "roughnessFactor": 0.89297135964975516
      }
    }
  ],
  "meshes": [
    {
      "name": "Mudkip_Material #77_0",
      "primitives": [
        {
          "attributes": {
            "JOINTS_0": 9,
            "NORMAL": 1,
            "POSITION": 0,
            "TEXCOORD_0": 2,
            "WEIGHTS_0": 10
          },
          "indices": 3,
          "material": 0,
          "mode": 4
        }
      ]
    },
    {
      "name": "Mudkip_Material #78_0",
      "primitives": [
        {
          "attributes": {
            "JOINTS_0": 11,
            "NORMAL": 5,
            "POSITION": 4,
            "TEXCOORD_0": 6,
            "WEIGHTS_0": 12
          },
          "indices": 7,
          "material": 1,
          "mode": 4
        }
      ]
    }
  ],
  "nodes": [
    {
      "children": [
        1
      ],
      "name": "RootNode (gltf orientation matrix)",
      "rotation": [
        -0.70710678118654746,
        -0,
        -0,
        0.70710678118654757
      ]
    },
    {
      "children": [
        2
      ],
      "name": "RootNode (model correction matrix)"
    },
    {
      "children": [
        3
      ],
      "matrix": [
        1,
        0,
        0,
        0,
        0,
        0,
        1,
        0,
        0,
        -1,
        0,
        0,
        0,
        0,
        0,
        1
      ],
      "name": "Mudkip.FBX"
    },
    {
      "children": [
        4
      ],
      "name": "RootNode"
    },
    {
      "children": [
        5,
        7,
        8,
        6
      ],
      "name": ""
    },
    {
      "children": [
        9
      ],
      "name": "_rootJoint"
    },
    {
      "matrix": [
        1,
        8.9997250645769411e-22,
        -1.0587911840678754e-22,
        0,
        -1.0587911840678759e-22,
        6.123233995736766e-17,
        -1,
        0,
        -8.999725064576943e-22,
        1.0000000000000002,
        6.1232339957367673e-17,
        0,
        2.7105054312137611e-20,
        -3.5527136788005009e-15,
        0,
        1
      ],
      "name": ""
    },
    {
      "mesh": 0,
      "name": "",
      "skin": 0
    },
    {
      "mesh": 1,
      "name": "",
      "skin": 0
    },
    {
      "children": [
        10,
        44,
        45
      ],
      "name": "pm0258_00_00",
      "rotation": [
        -1.5695823663008923e-07,
        -0,
        0,
        1
      ]
    },
    {
      "children": [
        11
      ],
      "name": "Origin_03"
    },
    {
      "children": [
        12,
        25
      ],
      "name": "Waist_02",
      "rotation": [
        0.48273241519927979,
        -0.48272961378097534,
        0.5166935920715332,
        0.51669067144393921
      ],
      "translation": [
        0,
        7.4886898994445801,
        -2.1944699287414551
      ]
    },
    {
      "children": [
        13,
        14,
        18,
        22
      ],
      "name": "Hips_04",
      "rotation": [
        -0.033960465341806412,
        -0.00033983189496211708,
        0.99942314624786377,
        -1.2812912245863117e-05
      ],
      "scale": [
        1.0000001192092896,
        1,
        1.0000001192092896
      ]
    },
    {
      "name": "EndHips_01",
      "rotation": [
        -2.9103830456733704e-11,
        1.1368683772161603e-13,
        2.6090245313855915e-15,
        1
      ],
      "translation": [
        5.8927974700927734,
        0,
        -8.8817841970012523e-16
      ]
    },
    {
      "children": [
        15
      ],
      "name": "LThigh_05",
      "rotation": [
        -0.022222660481929779,
        -0.73325425386428833,
        0.023990791290998459,
        0.67916774749755859
      ],
      "scale": [
        1,
        0.99999994039535522,
        1
      ],
      "translation": [
        2.3097105026245117,
        3.923208475112915,
        1.0197091102600098
      ]
    },
    {
      "children": [
        16
      ],
      "name": "LLeg_06",
      "rotation": [
        2.8881676967682066e-18,
        0.18389047682285309,
        -1.5545097718229417e-17,
        0.98294675350189209
      ],
      "scale": [
        0.99999994039535522,
        1.0000001192092896,
        0.99999988079071045
      ],
      "translation": [
        3.3749306201934814,
        0,
        9.5367431640625e-07
      ]
    },
    {
      "children": [
        17
      ],
      "name": "LFoot_07",
      "rotation": [
        -0.0074055627919733524,
        -0.80279058218002319,
        -0.0099708549678325653,
        0.59613174200057983
      ],
      "scale": [
        1.0000001192092896,
        0.99999994039535522,
        1
      ],
      "translation": [
        2.5482499599456787,
        4.76837158203125e-07,
        0
      ]
    },
    {
      "name": "EndLFoot_08",
      "rotation": [
        3.7252907425511239e-09,
        -3.3087227026476004e-22,
        -3.1974423109204508e-14,
        1
      ],
      "scale": [
        1,
        0.99999988079071045,
        0.99999988079071045
      ],
      "translation": [
        2.4273209571838379,
        8.8817841970012523e-16,
        -1.1920928955078125e-07
      ]
    },
    {
      "children": [
        19
      ],
      "name": "RThigh_09",
      "rotation": [
        0.02268458716571331,
        -0.73323732614517212,
        -0.024489739909768105,
        0.67915290594100952
      ],
      "scale": [
        0.99999988079071045,
        1,
        1.0000001192092896
      ],
      "translation": [
        2.3097095489501953,
        -3.9232099056243896,
        1.0197091102600098
      ]
    },
    {
      "children": [
        20
      ],
      "name": "RLeg_010",
      "rotation": [
        8.7923226033126411e-08,
        0.18389098346233368,
        -4.7123941726567864e-07,
        0.98294675350189209
      ],
      "scale": [
        0.99999994039535522,
        0.99999982118606567,
        0.99999994039535522
      ],
      "translation": [
        3.3749406337738037,
        9.5367431640625e-07,
        -9.5367431640625e-07
      ]
    },
    {
      "children": [
        21
      ],
      "name": "RFoot_011",
      "rotation": [
        0.021850066259503365,
        -0.80231297016143799,
        0.029431810602545738,
        0.59577703475952148
      ],
      "scale": [
        1,
        1,
        1.0000001192092896
      ],
      "translation": [
        2.5482501983642578,
        -9.5367431640625e-07,
        8.8817841970012523e-16
      ]
    },
    {
      "name": "EndRFoot_012",
      "rotation": [
        1.1661315170267379e-18,
        -4.2351647362715017e-22,
        -1.5987211554602254e-14,
        1
      ],
      "translation": [
        2.4273300170898438,
        0,
        -1.1920928955078125e-07
      ]
    },
    {
      "children": [
        23
      ],
      "name": "Tail1_013",
      "rotation": [
        0.00033878051908686757,
        0.016005817800760269,
        5.5726159189362079e-06,
        0.99987185001373291
      ],
      "translation": [
        5.8777084350585938,
        -8.6736173798840355e-19,
        1.2089200019836426
      ]
    },
    {
      "children": [
        24
      ],
      "name": "Tail2_014",
      "rotation": [
        9.9872238479292719e-07,
        -0.050547037273645401,
        5.0547093621844397e-08,
        0.99872177839279175
      ],
      "scale": [
        1.0000001192092896,
        1,
        1.0000001192092896
      ],
      "translation": [
        4.6501016616821289,
        1.0842021724855044e-19,
        0
      ]
    },
    {
      "name": "EndTail2_015",
      "rotation": [
        1.852884572118782e-22,
        -1.0532429383367696e-35,
        -5.6843418860808015e-14,
        1
      ],
      "translation": [
        11.450201988220215,
        1.0000076144933701e-06,
        -2.86102294921875e-06
      ]
    },
    {
      "children": [
        26
      ],
      "name": "Spine1_016",
      "rotation": [
        -1.4881386347786709e-20,
        1.0021028629125794e-06,
        1.4210851327070215e-14,
        1
      ],
      "scale": [
        1.0000002384185791,
        1,
        1.0000002384185791
      ]
    },
    {
      "children": [
        27,
        32,
        39
      ],
      "name": "Spine2_017",
      "rotation": [
        2.2498462240363309e-13,
        0.07804156094789505,
        3.9405456707993641e-14,
        0.99695020914077759
      ],
      "translation": [
        2.1529197692871094,
        0,
        0
      ]
    },
    {
      "children": [
        28
      ],
      "name": "LShoulder_018",
      "rotation": [
        0.67952477931976318,
        -0.16065035760402679,
        0.66652399301528931,
        -0.26111939549446106
      ],
      "scale": [
        1,
        1.0000001192092896,
        0.99999994039535522
      ],
      "translation": [
        3.9272212982177734,
        -2.9505119323730469,
        0.40948152542114258
      ]
    },
    {
      "children": [
        29
      ],
      "name": "LArm_019",
      "rotation": [
        -0.0088471788913011551,
        0.20273560285568237,
        -0.30645307898521423,
        0.93000352382659912
      ],
      "scale": [
        0.99999994039535522,
        0.99999988079071045,
        0.99999994039535522
      ],
      "translation": [
        2.4119696617126465,
        9.5367431640625e-07,
        0
      ]
    },
    {
      "children": [
        30
      ],
      "name": "LForeArm_020",
      "rotation": [
        1.7287476246526101e-13,
        -0.094906561076641083,
        1.6481343470976101e-14,
        0.99548619985580444
      ],
      "scale": [
        1.0000002384185791,
        1,
        1.0000002384185791
      ],
      "translation": [
        3.0131313800811768,
        0,
        1.430511474609375e-06
      ]
    },
    {
      "children": [
        31
      ],
      "name": "LHand_021",
      "rotation": [
        -5.1180190894228872e-06,
        -0.70557558536529541,
        2.3736411094432697e-06,
        0.70863467454910278
      ],
      "scale": [
        1,
        1,
        1.0000001192092896
      ],
      "translation": [
        2.7307415008544922,
        0,
        4.4408920985006262e-16
      ]
    },
    {
      "name": "EndLHand_022",
      "rotation": [
        -1.1368690548425181e-13,
        -2.2737367544323206e-13,
        1.0382580212242587e-13,
        1
      ],
      "translation": [
        2.2715106010437012,
        0,
        -2.2204460492503131e-16
      ]
    },
    {
      "children": [
        33
      ],
      "name": "Neck_023",
      "rotation": [
        1.9162831586296003e-13,
        0.47017240524291992,
        -3.5971120288143255e-13,
        0.88257461786270142
      ],
      "scale": [
        1.0000002384185791,
        1,
        1.0000002384185791
      ],
      "translation": [
        3.1494803428649902,
        -3.637978807091713e-12,
        -4.76837158203125e-07
      ]
    },
    {
      "children": [
        34,
        37
      ],
      "name": "Head_024",
      "rotation": [
        -3.6149631465337562e-14,
        0.1516728550195694,
        2.3558206167090256e-13,
        0.98843073844909668
      ],
      "scale": [
        1.0000001192092896,
        1,
        1.0000001192092896
      ],
      "translation": [
        2.7334089279174805,
        -6.7762635780344027e-21,
        2.384185791015625e-07
      ]
    },
    {
      "children": [
        35
      ],
      "name": "Feeler1_025",
      "rotation": [
        1.4235506762098893e-14,
        -0.033969532698392868,
        4.8385380683362619e-16,
        0.99942284822463989
      ],
      "translation": [
        15.032797813415527,
        7.2759576141834259e-12,
        3.0767202377319336
      ]
    },
    {
      "children": [
        36
      ],
      "name": "Feeler2_026",
      "rotation": [
        2.8421709430404007e-14,
        6.4623485355705287e-27,
        2.2737367544323206e-13,
        1
      ],
      "translation": [
        3.9687309265136719,
        2.7105054312137611e-20,
        -4.76837158203125e-07
      ]
    },
    {
      "name": "EndFeeler2_027",
      "rotation": [
        -1.3234889800848443e-23,
        -3.009265538105056e-36,
        2.2737367544323206e-13,
        1
      ],
      "translation": [
        10.203598022460938,
        2.9103830456733704e-11,
        9.5367431640625e-07
      ]
    },
    {
      "children": [
        38
      ],
      "name": "Jaw_028",
      "rotation": [
        9.0480290282357601e-07,
        0.91557282209396362,
        -7.4771776326088002e-07,
        -0.40215250849723816
      ],
      "translation": [
        8.4174528121948242,
        -1.4551915228366852e-11,
        8.8817841970012523e-16
      ]
    },
    {
      "name": "EndJaw_029",
      "rotation": [
        -1.1368683772161603e-13,
        -1.4901161193847656e-08,
        -1.6940658945086007e-21,
        1
      ],
      "translation": [
        12.954799652099609,
        1.8189894035458565e-12,
        -3.5527136788005009e-15
      ]
    },
    {
      "children": [
        40
      ],
      "name": "RShoulder_030",
      "rotation": [
        0.67952489852905273,
        0.16065074503421783,
        0.66652399301528931,
        0.26111903786659241
      ],
      "scale": [
        1.0000001192092896,
        1.0000001192092896,
        1.0000002384185791
      ],
      "translation": [
        3.9272198677062988,
        2.9505090713500977,
        0.40947341918945312
      ]
    },
    {
      "children": [
        41
      ],
      "name": "RArm_031",
      "rotation": [
        0.0088472981005907059,
        0.2027355432510376,
        0.30645304918289185,
        0.93000352382659912
      ],
      "scale": [
        1.0000001192092896,
        0.99999988079071045,
        0.99999994039535522
      ],
      "translation": [
        2.4119796752929688,
        1.9073486328125e-06,
        3.814697265625e-06
      ]
    },
    {
      "children": [
        42
      ],
      "name": "RForeArm_032",
      "rotation": [
        -2.3049970135705089e-13,
        -0.094906561076641083,
        -2.1975124627968134e-14,
        0.99548619985580444
      ],
      "scale": [
        1.0000002384185791,
        1,
        1.0000001192092896
      ],
      "translation": [
        3.0131294727325439,
        -3.814697265625e-06,
        3.814697265625e-06
      ]
    },
    {
      "children": [
        43
      ],
      "name": "RHand_033",
      "rotation": [
        0.0037878416478633881,
        -0.70556551218032837,
        0.0037717313971370459,
        0.70862454175949097
      ],
      "scale": [
        1.0000002384185791,
        1,
        1.0000002384185791
      ],
      "translation": [
        2.7307415008544922,
        -1.9073486328125e-06,
        -8.106231689453125e-06
      ]
    },
    {
      "name": "EndRHand_034",
      "rotation": [
        1.8500138418029167e-18,
        -4.5474735088646412e-13,
        4.5830006456526462e-13,
        1
      ],
      "scale": [
        1,
        0.99999988079071045,
        0.99999988079071045
      ],
      "translation": [
        2.2715208530426025,
        -9.5367431640625e-07,
        -1.1920928955078125e-07
      ]
    },
    {
      "name": "pm0258_00_BodyASkin_035"
    },
    {
      "name": "pm0258_00_BodyBSkin_036"
    }
  ],
  "samplers": [
    {
      "magFilter": 9729,
      "minFilter": 9987,
      "wrapS": 10497,
      "wrapT": 10497
    }
  ],
  "scene": 0,
  "scenes": [
    {
      "name": "OSG_Scene",
      "nodes": [
        0
      ]
    }
  ],
  "skins": [
    {
      "inverseBindMatrices": 8,
      "joints": [
        5,
        9,
        10,
        11,
        12,
        13,
        14,
        15,
        16,
        17,
        18,
        19,
        20,
        21,
        22,
        23,
        24,
        25,
        26,
        27,
        28,
        29,
        30,
        31,
        32,
        33,
        34,
        35,
        36,
        37,
        38,
        39,
        40,
        41,
        42,
        43,
        44,
        45
      ],
      "skeleton": 5
    }
  ],
  "textures": [
    {
      "sampler": 0,
      "source": 0
    },
    {
      "sampler": 0,
      "source": 1
    }
  ]
}

