{
  "accessors": [
    {
      "bufferView": 2,
      "componentType": 5126,
      "count": 10821,
      "max": [
        0.65886002779006958,
        0.97090297937393188,
        1.0309779644012451
      ],
      "min": [
        -0.31447100639343262,
        -0.76134002208709717,
        -0.69395798444747925
      ],
      "type": "VEC3"
    },
    {
      "bufferView": 2,
      "byteOffset": 129852,
      "componentType": 5126,
      "count": 10821,
      "max": [
        0.99985849857330322,
        0.999736487865448,
        0.99968773126602173
      ],
      "min": [
        -1,
        -0.99989104270935059,
        -0.99993264675140381
      ],
      "type": "VEC3"
    },
    {
      "bufferView": 3,
      "componentType": 5126,
      "count": 10821,
      "max": [
        0.99988514184951782,
        0.99987220764160156,
        0.99976140260696411,
        1
      ],
      "min": [
        -0.99952369928359985,
        -0.99997705221176147,
        -0.9999958872795105,
        1
      ],
      "type": "VEC4"
    },
    {
      "bufferView": 1,
      "componentType": 5126,
      "count": 10821,
      "max": [
        0.99804002046585083,
        0.99708998203277588
      ],
      "min": [
        0.0019499999471008778,
        0.0019499999471008778
      ],
      "type": "VEC2"
    },
    {
      "bufferView": 0,
      "componentType": 5125,
      "count": 60900,
      "max": [
        10820
      ],
      "min": [
        0
      ],
      "type": "SCALAR"
    },
    {
      "bufferView": 2,
      "byteOffset": 259704,
      "componentType": 5126,
      "count": 16265,
      "max": [
        0.051771998405456543,
        -0.44482100009918213,
        0.65407198667526245
      ],
      "min": [
        -0.22206500172615051,
        -0.74514502286911011,
        0.52437698841094971
      ],
      "type": "VEC3"
    },
    {
      "bufferView": 2,
      "byteOffset": 454884,
      "componentType": 5126,
      "count": 16265,
      "max": [
        0.99972015619277954,
        0.99981206655502319,
        0.99917972087860107
      ],
      "min": [
        -0.9997212290763855,
        -0.99981206655502319,
        -0.99917972087860107
      ],
      "type": "VEC3"
    },
    {
      "bufferView": 3,
      "byteOffset": 173136,
      "componentType": 5126,
      "count": 16265,
      "max": [
        0.99993282556533813,
        0.99972546100616455,
        0.99997520446777344,
        1
      ],
      "min": [
        -0.91255301237106323,
        -0.99870753288269043,
        -0.99998670816421509,
        1
      ],
      "type": "VEC4"
    },
    {
      "bufferView": 1,
      "byteOffset": 86568,
      "componentType": 5126,
      "count": 16265,
      "max": [
        0.99637001752853394,
        0.99804002046585083
      ],
      "min": [
        0.0019499999471008778,
        0.0019499999471008778
      ],
      "type": "VEC2"
    },
    {
      "bufferView": 0,
      "byteOffset": 243600,
      "componentType": 5125,
      "count": 96768,
      "max": [
        16264
      ],
      "min": [
        0
      ],
      "type": "SCALAR"
    }
  ],
  "asset": {
    "extras": {
      "author": "danielcr677 (https://sketchfab.com/danielcr677)",
      "license": "CC-BY-4.0 (http://creativecommons.org/licenses/by/4.0/)",
      "source": "https://sketchfab.com/3d-models/umbreon-fan-art-bf41dc81c378438897c75cc696407d9d",
      "title": "Umbreon fan art"
    },
    "generator": "Sketchfab-8.32.0",
    "version": "2.0"
  },
  "bufferViews": [
    {
      "buffer": 0,
      "byteLength": 630672,
      "byteOffset": 0,
      "name": "floatBufferViews",
      "target": 34963
    },
    {
      "buffer": 0,
      "byteLength": 216688,
      "byteOffset": 630672,
      "byteStride": 8,
      "name": "floatBufferViews",
      "target": 34962
    },
    {
      "buffer": 0,
      "byteLength": 650064,
      "byteOffset": 847360,
      "byteStride": 12,
      "name": "floatBufferViews",
      "target": 34962
    },
    {
      "buffer": 0,
      "byteLength": 433376,
      "byteOffset": 1497424,
      "byteStride": 16,
      "name": "floatBufferViews",
      "target": 34962
    }
  ],
  "buffers": [
    {
      "byteLength": 1930800,
      "uri": "scene.bin"
    }
  ],
  "images": [
    {
      "uri": "textures/material_baseColor.png"
    },
    {
      "uri": "textures/material_metallicRoughness.png"
    },
    {
      "uri": "textures/material_emissive.png"
    },
    {
      "uri": "textures/material_normal.png"
    },
    {
      "uri": "textures/eyes_baseColor.png"
    },
    {
      "uri": "textures/eyes_metallicRoughness.png"
    },
    {
      "uri": "textures/eyes_emissive.png"
    },
    {
      "uri": "textures/eyes_normal.png"
    }
  ],
  "materials": [
    {
      "doubleSided": true,
      "emissiveFactor": [
        1,
        1,
        1
      ],
      "emissiveTexture": {
        "index": 2,
        "texCoord": 0
      },
      "name": "material",
      "normalTexture": {
        "index": 3,
        "scale": 1,
        "texCoord": 0
      },
      "pbrMetallicRoughness": {
        "baseColorFactor": [
          1,
          1,
          1,
          1
        ],
        "baseColorTexture": {
          "index": 0,
          "texCoord": 0
        },
        "metallicFactor": 1,
        "metallicRoughnessTexture": {
          "index": 1,
          "texCoord": 0
        },
        "roughnessFactor": 1
      }
    },
    {
      "doubleSided": true,
      "emissiveFactor": [
        1,
        1,
        1
      ],
      "emissiveTexture": {
        "index": 6,
        "texCoord": 0
      },
      "name": "eyes",
      "normalTexture": {
        "index": 7,
        "scale": 1,
        "texCoord": 0
      },
      "pbrMetallicRoughness": {
        "baseColorFactor": [
          1,
          1,
          1,
          1
        ],
        "baseColorTexture": {
          "index": 4,
          "texCoord": 0
        },
        "metallicFactor": 1,
        "metallicRoughnessTexture": {
          "index": 5,
          "texCoord": 0
        },
        "roughnessFactor": 1
      }
    }
  ],
  "meshes": [
    {
      "primitives": [
        {
          "attributes": {
            "NORMAL": 1,
            "POSITION": 0,
            "TANGENT": 2,
            "TEXCOORD_0": 3
          },
          "indices": 4,
          "material": 0,
          "mode": 4
        }
      ]
    },
    {
      "primitives": [
        {
          "attributes": {
            "NORMAL": 6,
            "POSITION": 5,
            "TANGENT": 7,
            "TEXCOORD_0": 8
          },
          "indices": 9,
          "material": 1,
          "mode": 4
        }
      ]
    }
  ],
  "nodes": [
    {
      "children": [
        1
      ],
      "name": "RootNode (gltf orientation matrix)",
      "rotation": [
        -0.70710678118654746,
        -0,
        -0,
        0.70710678118654757
      ]
    },
    {
      "children": [
        2
      ],
      "matrix": [
        0.56454300880432129,
        0,
        0,
        0,
        0,
        0.56454300880432129,
        0,
        0,
        0,
        0,
        0.56454300880432129,
        0,
        0,
        0,
        0,
        1
      ],
      "name": "RootNode (model correction matrix)"
    },
    {
      "children": [
        3,
        4
      ],
      "name": "finalMesh.obj.cleaner.materialmerger.gles"
    },
    {
      "mesh": 0,
      "name": ""
    },
    {
      "mesh": 1,
      "name": ""
    }
  ],
  "samplers": [
    {
      "magFilter": 9729,
      "minFilter": 9987,
      "wrapS": 10497,
      "wrapT": 10497
    }
  ],
  "scene": 0,
  "scenes": [
    {
      "name": "OSG_Scene",
      "nodes": [
        0
      ]
    }
  ],
  "textures": [
    {
      "sampler": 0,
      "source": 0
    },
    {
      "sampler": 0,
      "source": 1
    },
    {
      "sampler": 0,
      "source": 2
    },
    {
      "sampler": 0,
      "source": 3
    },
    {
      "sampler": 0,
      "source": 4
    },
    {
      "sampler": 0,
      "source": 5
    },
    {
      "sampler": 0,
      "source": 6
    },
    {
      "sampler": 0,
      "source": 7
    }
  ]
}

