{
  "accessors": [
    {
      "bufferView": 2,
      "componentType": 5126,
      "count": 5623,
      "max": [
        0.56811100244522095,
        1,
        0.67326098680496216
      ],
      "min": [
        -0.56811100244522095,
        -1,
        -0.7545199990272522
      ],
      "type": "VEC3"
    },
    {
      "bufferView": 2,
      "byteOffset": 67476,
      "componentType": 5126,
      "count": 5623,
      "max": [
        1,
        1,
        1
      ],
      "min": [
        -1,
        -1,
        -1
      ],
      "type": "VEC3"
    },
    {
      "bufferView": 3,
      "componentType": 5126,
      "count": 5623,
      "max": [
        1,
        0.99973130226135254,
        1,
        1
      ],
      "min": [
        -1,
        -0.99991315603256226,
        -1,
        -1
      ],
      "type": "VEC4"
    },
    {
      "bufferView": 1,
      "componentType": 5126,
      "count": 5623,
      "max": [
        0.99003100395202637,
        0.99949997663497925
      ],
      "min": [
        0.00050000002374872565,
        0.00050000002374872565
      ],
      "type": "VEC2"
    },
    {
      "bufferView": 0,
      "componentType": 5125,
      "count": 27396,
      "max": [
        5622
      ],
      "min": [
        0
      ],
      "type": "SCALAR"
    },
    {
      "bufferView": 2,
      "byteOffset": 134952,
      "componentType": 5126,
      "count": 1236,
      "max": [
        0.061340201646089554,
        0.189192995429039,
        0.71443802118301392
      ],
      "min": [
        -0.037224698811769485,
        -0.014032700099050999,
        0.61587297916412354
      ],
      "type": "VEC3"
    },
    {
      "bufferView": 2,
      "byteOffset": 149784,
      "componentType": 5126,
      "count": 1236,
      "max": [
        0.98962873220443726,
        0.99402362108230591,
        0.99780851602554321
      ],
      "min": [
        -0.99980366230010986,
        -0.97472697496414185,
        -0.99980336427688599
      ],
      "type": "VEC3"
    },
    {
      "bufferView": 3,
      "byteOffset": 89968,
      "componentType": 5126,
      "count": 1236,
      "max": [
        0.99967890977859497,
        0.99701148271560669,
        0.99987083673477173,
        1
      ],
      "min": [
        -0.99960285425186157,
        -0.99575531482696533,
        -0.99987578392028809,
        -1
      ],
      "type": "VEC4"
    },
    {
      "bufferView": 1,
      "byteOffset": 44984,
      "componentType": 5126,
      "count": 1236,
      "max": [
        0.849590003490448,
        0.98829102516174316
      ],
      "min": [
        0.25163498520851135,
        0.01498860027641058
      ],
      "type": "VEC2"
    },
    {
      "bufferView": 0,
      "byteOffset": 109584,
      "componentType": 5125,
      "count": 5700,
      "max": [
        1235
      ],
      "min": [
        0
      ],
      "type": "SCALAR"
    },
    {
      "bufferView": 2,
      "byteOffset": 164616,
      "componentType": 5126,
      "count": 149,
      "max": [
        0.027148900553584099,
        0.25575399398803711,
        0.67261099815368652
      ],
      "min": [
        -0.007081999909132719,
        -0.01722249947488308,
        0.65381598472595215
      ],
      "type": "VEC3"
    },
    {
      "bufferView": 2,
      "byteOffset": 166404,
      "componentType": 5126,
      "count": 149,
      "max": [
        1,
        0.60810303688049316,
        1
      ],
      "min": [
        -1,
        -0.87547099590301514,
        -1
      ],
      "type": "VEC3"
    },
    {
      "bufferView": 3,
      "byteOffset": 109744,
      "componentType": 5126,
      "count": 149,
      "max": [
        0.99728220701217651,
        0.99997144937515259,
        0.99910777807235718,
        1
      ],
      "min": [
        -0.99911373853683472,
        -0.93491882085800171,
        -0.99982637166976929,
        -1
      ],
      "type": "VEC4"
    },
    {
      "bufferView": 1,
      "byteOffset": 54872,
      "componentType": 5126,
      "count": 149,
      "max": [
        0.73568600416183472,
        0.83036500215530396
      ],
      "min": [
        0.097090400755405426,
        0.28061199188232422
      ],
      "type": "VEC2"
    },
    {
      "bufferView": 0,
      "byteOffset": 132384,
      "componentType": 5125,
      "count": 558,
      "max": [
        148
      ],
      "min": [
        0
      ],
      "type": "SCALAR"
    },
    {
      "bufferView": 2,
      "byteOffset": 168192,
      "componentType": 5126,
      "count": 648,
      "max": [
        0.062272399663925171,
        0.16375300288200378,
        0.71567302942276001
      ],
      "min": [
        -0.040041700005531311,
        -0.015626799315214157,
        0.61518001556396484
      ],
      "type": "VEC3"
    },
    {
      "bufferView": 2,
      "byteOffset": 175968,
      "componentType": 5126,
      "count": 648,
      "max": [
        0.99973875284194946,
        0.98168563842773438,
        0.99998164176940918
      ],
      "min": [
        -0.99987423419952393,
        -0.96180462837219238,
        -0.99994921684265137
      ],
      "type": "VEC3"
    },
    {
      "bufferView": 3,
      "byteOffset": 112128,
      "componentType": 5126,
      "count": 648,
      "max": [
        0.99959295988082886,
        0.99988776445388794,
        0.99987488985061646,
        1
      ],
      "min": [
        -0.99605661630630493,
        -0.98723012208938599,
        -0.99988269805908203,
        -1
      ],
      "type": "VEC4"
    },
    {
      "bufferView": 1,
      "byteOffset": 56064,
      "componentType": 5126,
      "count": 648,
      "max": [
        0.99808400869369507,
        0.75501102209091187
      ],
      "min": [
        0.00050000002374872565,
        0.0053295199759304523
      ],
      "type": "VEC2"
    },
    {
      "bufferView": 0,
      "byteOffset": 134616,
      "componentType": 5125,
      "count": 2880,
      "max": [
        647
      ],
      "min": [
        0
      ],
      "type": "SCALAR"
    },
    {
      "bufferView": 2,
      "byteOffset": 183744,
      "componentType": 5126,
      "count": 363,
      "max": [
        0.058864500373601913,
        0.4428820013999939,
        0.71327400207519531
      ],
      "min": [
        -0.039044700562953949,
        0.25916600227355957,
        0.61536502838134766
      ],
      "type": "VEC3"
    },
    {
      "bufferView": 2,
      "byteOffset": 188100,
      "componentType": 5126,
      "count": 363,
      "max": [
        1,
        1,
        1
      ],
      "min": [
        -1,
        -0.96620297431945801,
        -1
      ],
      "type": "VEC3"
    },
    {
      "bufferView": 3,
      "byteOffset": 122496,
      "componentType": 5126,
      "count": 363,
      "max": [
        1,
        0.99980044364929199,
        0.99981170892715454,
        1
      ],
      "min": [
        -0.99952322244644165,
        -0.99980044364929199,
        -0.99998587369918823,
        1
      ],
      "type": "VEC4"
    },
    {
      "bufferView": 1,
      "byteOffset": 61248,
      "componentType": 5126,
      "count": 363,
      "max": [
        0.98893100023269653,
        0.99949997663497925
      ],
      "min": [
        0.0053295101970434189,
        0.53174698352813721
      ],
      "type": "VEC2"
    },
    {
      "bufferView": 0,
      "byteOffset": 146136,
      "componentType": 5125,
      "count": 672,
      "max": [
        362
      ],
      "min": [
        0
      ],
      "type": "SCALAR"
    },
    {
      "bufferView": 2,
      "byteOffset": 192456,
      "componentType": 5126,
      "count": 328,
      "max": [
        0.052932001650333405,
        0.32401600480079651,
        0.70734101533889771
      ],
      "min": [
        -0.033112101256847382,
        0.25527599453926086,
        0.62129700183868408
      ],
      "type": "VEC3"
    },
    {
      "bufferView": 2,
      "byteOffset": 196392,
      "componentType": 5126,
      "count": 328,
      "max": [
        0.99320566654205322,
        0.96912878751754761,
        0.99320566654205322
      ],
      "min": [
        -0.99314635992050171,
        -1,
        -0.99320566654205322
      ],
      "type": "VEC3"
    },
    {
      "bufferView": 3,
      "byteOffset": 128304,
      "componentType": 5126,
      "count": 328,
      "max": [
        0.99999886751174927,
        0.67025089263916016,
        0.99888437986373901,
        1
      ],
      "min": [
        -1,
        -0.67024767398834229,
        -0.99201768636703491,
        1
      ],
      "type": "VEC4"
    },
    {
      "bufferView": 1,
      "byteOffset": 64152,
      "componentType": 5126,
      "count": 328,
      "max": [
        0.84779900312423706,
        0.9964519739151001
      ],
      "min": [
        0.097090400755405426,
        0.65248602628707886
      ],
      "type": "VEC2"
    },
    {
      "bufferView": 0,
      "byteOffset": 148824,
      "componentType": 5125,
      "count": 1650,
      "max": [
        327
      ],
      "min": [
        0
      ],
      "type": "SCALAR"
    },
    {
      "bufferView": 2,
      "byteOffset": 200328,
      "componentType": 5126,
      "count": 110,
      "max": [
        0.10011100023984909,
        0.25509598851203918,
        0.7545199990272522
      ],
      "min": [
        -0.080290801823139191,
        -0.075745098292827606,
        0.57411801815032959
      ],
      "type": "VEC3"
    },
    {
      "bufferView": 2,
      "byteOffset": 201648,
      "componentType": 5126,
      "count": 110,
      "max": [
        0.99998664855957031,
        0.40061613917350769,
        0.99998664855957031
      ],
      "min": [
        -0.99998664855957031,
        -0.98189598321914673,
        -0.99998664855957031
      ],
      "type": "VEC3"
    },
    {
      "bufferView": 3,
      "byteOffset": 133552,
      "componentType": 5126,
      "count": 110,
      "max": [
        0.99992102384567261,
        0.51130741834640503,
        0.9999542236328125,
        1
      ],
      "min": [
        -0.99932819604873657,
        -0.52382218837738037,
        -0.99918520450592041,
        1
      ],
      "type": "VEC4"
    },
    {
      "bufferView": 1,
      "byteOffset": 66776,
      "componentType": 5126,
      "count": 110,
      "max": [
        0.72753000259399414,
        0.63947099447250366
      ],
      "min": [
        0.0053295199759304523,
        0.00050000002374872565
      ],
      "type": "VEC2"
    },
    {
      "bufferView": 0,
      "byteOffset": 155424,
      "componentType": 5125,
      "count": 546,
      "max": [
        109
      ],
      "min": [
        0
      ],
      "type": "SCALAR"
    }
  ],
  "asset": {
    "extras": {
      "author": "ali3dking (https://sketchfab.com/ali3dking)",
      "license": "CC-BY-4.0 (http://creativecommons.org/licenses/by/4.0/)",
      "source": "https://sketchfab.com/3d-models/lowpoly-fish-lamp-87261c9d0ad34c0ba4716ad18ab4f891",
      "title": "Lowpoly Fish Lamp"
    },
    "generator": "Sketchfab-8.29.0",
    "version": "2.0"
  },
  "bufferViews": [
    {
      "buffer": 0,
      "byteLength": 157608,
      "byteOffset": 0,
      "name": "floatBufferViews",
      "target": 34963
    },
    {
      "buffer": 0,
      "byteLength": 67656,
      "byteOffset": 157608,
      "byteStride": 8,
      "name": "floatBufferViews",
      "target": 34962
    },
    {
      "buffer": 0,
      "byteLength": 202968,
      "byteOffset": 225264,
      "byteStride": 12,
      "name": "floatBufferViews",
      "target": 34962
    },
    {
      "buffer": 0,
      "byteLength": 135312,
      "byteOffset": 428232,
      "byteStride": 16,
      "name": "floatBufferViews",
      "target": 34962
    }
  ],
  "buffers": [
    {
      "byteLength": 563544,
      "uri": "scene.bin"
    }
  ],
  "images": [
    {
      "uri": "textures/Lamp_baseColor.png"
    },
    {
      "uri": "textures/Lamp_metallicRoughness.png"
    },
    {
      "uri": "textures/Lamp_emissive.jpeg"
    },
    {
      "uri": "textures/Lamp_normal.png"
    },
    {
      "uri": "textures/Fish_light_baseColor.jpeg"
    },
    {
      "uri": "textures/Fish_light_metallicRoughness.png"
    },
    {
      "uri": "textures/Fish_light_normal.png"
    }
  ],
  "materials": [
    {
      "alphaMode": "BLEND",
      "doubleSided": true,
      "emissiveFactor": [
        1,
        1,
        1
      ],
      "emissiveTexture": {
        "index": 2,
        "texCoord": 0
      },
      "name": "Lamp",
      "normalTexture": {
        "index": 3,
        "scale": 1,
        "texCoord": 0
      },
      "occlusionTexture": {
        "index": 1,
        "strength": 1,
        "texCoord": 0
      },
      "pbrMetallicRoughness": {
        "baseColorFactor": [
          1,
          1,
          1,
          1
        ],
        "baseColorTexture": {
          "index": 0,
          "texCoord": 0
        },
        "metallicFactor": 1,
        "metallicRoughnessTexture": {
          "index": 1,
          "texCoord": 0
        },
        "roughnessFactor": 1
      }
    },
    {
      "doubleSided": true,
      "name": "Fish_light",
      "normalTexture": {
        "index": 6,
        "scale": 1,
        "texCoord": 0
      },
      "occlusionTexture": {
        "index": 5,
        "strength": 1,
        "texCoord": 0
      },
      "pbrMetallicRoughness": {
        "baseColorFactor": [
          1,
          1,
          1,
          1
        ],
        "baseColorTexture": {
          "index": 4,
          "texCoord": 0
        },
        "metallicFactor": 1,
        "metallicRoughnessTexture": {
          "index": 5,
          "texCoord": 0
        },
        "roughnessFactor": 1
      }
    }
  ],
  "meshes": [
    {
      "name": "defaultMaterial",
      "primitives": [
        {
          "attributes": {
            "NORMAL": 1,
            "POSITION": 0,
            "TANGENT": 2,
            "TEXCOORD_0": 3
          },
          "indices": 4,
          "material": 1,
          "mode": 4
        }
      ]
    },
    {
      "name": "defaultMaterial",
      "primitives": [
        {
          "attributes": {
            "NORMAL": 6,
            "POSITION": 5,
            "TANGENT": 7,
            "TEXCOORD_0": 8
          },
          "indices": 9,
          "material": 0,
          "mode": 4
        }
      ]
    },
    {
      "name": "defaultMaterial",
      "primitives": [
        {
          "attributes": {
            "NORMAL": 11,
            "POSITION": 10,
            "TANGENT": 12,
            "TEXCOORD_0": 13
          },
          "indices": 14,
          "material": 0,
          "mode": 4
        }
      ]
    },
    {
      "name": "defaultMaterial",
      "primitives": [
        {
          "attributes": {
            "NORMAL": 16,
            "POSITION": 15,
            "TANGENT": 17,
            "TEXCOORD_0": 18
          },
          "indices": 19,
          "material": 0,
          "mode": 4
        }
      ]
    },
    {
      "name": "defaultMaterial",
      "primitives": [
        {
          "attributes": {
            "NORMAL": 21,
            "POSITION": 20,
            "TANGENT": 22,
            "TEXCOORD_0": 23
          },
          "indices": 24,
          "material": 0,
          "mode": 4
        }
      ]
    },
    {
      "name": "defaultMaterial",
      "primitives": [
        {
          "attributes": {
            "NORMAL": 26,
            "POSITION": 25,
            "TANGENT": 27,
            "TEXCOORD_0": 28
          },
          "indices": 29,
          "material": 0,
          "mode": 4
        }
      ]
    },
    {
      "name": "defaultMaterial",
      "primitives": [
        {
          "attributes": {
            "NORMAL": 31,
            "POSITION": 30,
            "TANGENT": 32,
            "TEXCOORD_0": 33
          },
          "indices": 34,
          "material": 0,
          "mode": 4
        }
      ]
    }
  ],
  "nodes": [
    {
      "children": [
        1
      ],
      "name": "RootNode (gltf orientation matrix)",
      "rotation": [
        -0.70710678118654746,
        -0,
        -0,
        0.70710678118654757
      ]
    },
    {
      "children": [
        2
      ],
      "matrix": [
        -2.2204460492503131e-16,
        1,
        0,
        0,
        -1,
        -2.2204460492503131e-16,
        0,
        0,
        0,
        0,
        1,
        0,
        4.6082739402208972e-08,
        6.9883746789400902e-08,
        -5.0368926807209391e-09,
        1
      ],
      "name": "RootNode (model correction matrix)"
    },
    {
      "children": [
        3,
        5,
        7,
        9,
        11,
        13,
        15
      ],
      "matrix": [
        1,
        0,
        0,
        0,
        0,
        -4.3711390063094768e-08,
        0.999999999999999,
        0,
        0,
        -0.999999999999999,
        -4.3711390063094768e-08,
        0,
        0,
        0,
        0,
        1
      ],
      "name": "Collada visual scene group"
    },
    {
      "children": [
        4
      ],
      "name": "fish"
    },
    {
      "mesh": 0,
      "name": "defaultMaterial"
    },
    {
      "children": [
        6
      ],
      "name": "lampinsidewires001"
    },
    {
      "mesh": 1,
      "name": "defaultMaterial"
    },
    {
      "children": [
        8
      ],
      "name": "lampinsideglass001"
    },
    {
      "mesh": 2,
      "name": "defaultMaterial"
    },
    {
      "children": [
        10
      ],
      "name": "lampinsidelights001"
    },
    {
      "mesh": 3,
      "name": "defaultMaterial"
    },
    {
      "children": [
        12
      ],
      "name": "LampHolder_Low002"
    },
    {
      "mesh": 4,
      "name": "defaultMaterial"
    },
    {
      "children": [
        14
      ],
      "name": "lampbase001"
    },
    {
      "mesh": 5,
      "name": "defaultMaterial"
    },
    {
      "children": [
        16
      ],
      "name": "lampbulb001"
    },
    {
      "mesh": 6,
      "name": "defaultMaterial"
    }
  ],
  "samplers": [
    {
      "magFilter": 9729,
      "minFilter": 9987,
      "wrapS": 10497,
      "wrapT": 10497
    }
  ],
  "scene": 0,
  "scenes": [
    {
      "name": "OSG_Scene",
      "nodes": [
        0
      ]
    }
  ],
  "textures": [
    {
      "sampler": 0,
      "source": 0
    },
    {
      "sampler": 0,
      "source": 1
    },
    {
      "sampler": 0,
      "source": 2
    },
    {
      "sampler": 0,
      "source": 3
    },
    {
      "sampler": 0,
      "source": 4
    },
    {
      "sampler": 0,
      "source": 5
    },
    {
      "sampler": 0,
      "source": 6
    }
  ]
}

